<svg width="223" height="80" viewBox="0 0 223 80" fill="none" xmlns="http://www.w3.org/2000/svg">
<path d="M29.437 50.904H10.237V45.4H29.437V50.904ZM18.941 24.152H20.733L6.973 63H0.573L16.637 18.2H23.037L39.101 63H32.701L18.941 24.152ZM43.4665 63V31.64H47.9465L49.0985 37.656L46.8585 36.696C48.9705 34.3493 51.0292 32.8133 53.0345 32.088C55.0612 31.3627 57.0345 31 58.9545 31C63.5412 31 66.8158 32.3227 68.7785 34.968C70.7625 37.6133 71.7545 41.1973 71.7545 45.72V63H65.9945V45.72C65.9945 42.392 65.3758 39.96 64.1385 38.424C62.9012 36.888 60.7892 36.12 57.8025 36.12C55.6905 36.12 53.7492 36.5893 51.9785 37.528C50.2292 38.4453 49.0772 39.9173 48.5225 41.944L49.2265 38.424V63H43.4665ZM79.2165 63V31.64H84.9765V63H79.2165ZM79.2165 24.6V18.2H84.9765V24.6H79.2165Z" fill="#E0E0E0"/>
<path d="M93.37 63V18.2H99.45V57.496H119.994V63H93.37ZM124.217 63V31.64H129.977V63H124.217ZM124.217 24.6V18.2H129.977V24.6H124.217ZM137.779 63V31.64H142.259L143.411 37.656L141.235 36.632C143.198 34.52 145.107 33.0587 146.963 32.248C148.819 31.416 150.771 31 152.819 31C154.355 31 155.827 31.256 157.235 31.768C158.664 32.2587 159.944 33.1333 161.075 34.392C162.227 35.6293 163.144 37.3573 163.827 39.576L162.227 38.872C163.166 36.44 164.606 34.52 166.547 33.112C168.488 31.704 171.102 31 174.387 31C177.011 31 179.219 31.4907 181.011 32.472C182.803 33.432 184.147 34.9147 185.043 36.92C185.96 38.904 186.419 41.432 186.419 44.504V63H180.659V44.568C180.659 41.624 180.083 39.48 178.931 38.136C177.779 36.792 175.902 36.12 173.299 36.12C171.464 36.12 169.992 36.408 168.883 36.984C167.774 37.5387 166.931 38.264 166.355 39.16C165.8 40.056 165.427 41.0053 165.235 42.008C165.064 43.0107 164.979 43.9493 164.979 44.824V63H159.219V45.72C159.219 43.16 158.91 41.1867 158.291 39.8C157.672 38.4133 156.808 37.4533 155.699 36.92C154.59 36.3867 153.31 36.12 151.859 36.12C149.747 36.12 147.859 36.5893 146.195 37.528C144.531 38.4453 143.411 39.9173 142.835 41.944L143.539 38.808V63H137.779ZM208.944 63.64C205.253 63.64 202.149 62.8827 199.632 61.368C197.115 59.8533 195.205 57.848 193.904 55.352C192.624 52.8347 191.984 50.072 191.984 47.064C191.984 44.1413 192.581 41.464 193.776 39.032C194.992 36.6 196.741 34.6587 199.024 33.208C201.328 31.736 204.101 31 207.344 31C209.947 31 212.261 31.5227 214.288 32.568C216.336 33.592 217.936 35.096 219.088 37.08C220.261 39.0427 220.848 41.432 220.848 44.248C220.848 44.696 220.827 45.1867 220.784 45.72C220.763 46.232 220.699 46.7653 220.592 47.32H197.872C198.149 50.2213 198.843 52.4827 199.952 54.104C201.061 55.7253 202.459 56.8667 204.144 57.528C205.829 58.1893 207.664 58.52 209.648 58.52C211.099 58.52 212.613 58.3707 214.192 58.072C215.771 57.7733 217.264 57.304 218.672 56.664L219.44 61.208C218.224 61.7413 216.741 62.2853 214.992 62.84C213.243 63.3733 211.227 63.64 208.944 63.64ZM198.384 43.352H214.896C214.896 41.88 214.619 40.6 214.064 39.512C213.509 38.424 212.667 37.592 211.536 37.016C210.405 36.4187 208.965 36.12 207.216 36.12C204.656 36.12 202.683 36.76 201.296 38.04C199.931 39.2987 198.96 41.0693 198.384 43.352Z" fill="#A2C11C"/>
</svg>
